# xmcd
#
# Track frame offsets:
#	182
#	19015
#	57577
#	87350
#
# Disc length: 1585 seconds
#
# Revision: 2
# Processed by: cddbd v1.5.2PL0 Copyright (c) Steve Scherf et al.
# Submitted via: EZCDAudioConverter 9.0.5.1
#
DISCID=2c062f04
DTITLE=Devastation - I Feel Love (France CDS) (EZ-9.05-WAV)
DYEAR=1992
DGENRE=
TTITLE0=I Feel Love (Classic Mix 7" Edit)
TTITLE1=I Feel Love (Classic Mix 12" Edit)
TTITLE2=I Feel Love (Rave Devastation)
TTITLE3=I Feel Love (Accapella)
EXTD=
EXTT0=
EXTT1=
EXTT2=
EXTT3=
PLAYORDER=
